<svg width="60" height="56" viewBox="0 0 60 56" fill="none" xmlns="http://www.w3.org/2000/svg">
<path d="M4.9517 41H1.07386L12.2898 10.4545H16.108L27.3239 41H23.446L14.3182 15.2869H14.0795L4.9517 41ZM6.38352 29.0682H22.0142V32.3494H6.38352V29.0682Z" fill="#F17C3A"/>
<path d="M32.6989 41V10.4545H36.2188V21.7301H36.517C36.7756 21.3324 37.1335 20.8253 37.5909 20.2088C38.0582 19.5824 38.7244 19.0256 39.5895 18.5384C40.4645 18.0412 41.6477 17.7926 43.1392 17.7926C45.0682 17.7926 46.7685 18.2749 48.2401 19.2393C49.7116 20.2038 50.8601 21.571 51.6854 23.3409C52.5107 25.1108 52.9233 27.1989 52.9233 29.6051C52.9233 32.0312 52.5107 34.1342 51.6854 35.9141C50.8601 37.6839 49.7166 39.0561 48.255 40.0305C46.7933 40.995 45.108 41.4773 43.1989 41.4773C41.7273 41.4773 40.549 41.2337 39.6641 40.7464C38.7791 40.2493 38.098 39.6875 37.6207 39.0611C37.1435 38.4247 36.7756 37.8977 36.517 37.4801H36.0994V41H32.6989ZM36.1591 29.5455C36.1591 31.2756 36.4126 32.8018 36.9197 34.1243C37.4268 35.4368 38.1676 36.4659 39.142 37.2116C40.1165 37.9474 41.3097 38.3153 42.7216 38.3153C44.1932 38.3153 45.4212 37.9276 46.4055 37.152C47.3999 36.3665 48.1456 35.3125 48.6428 33.9901C49.1499 32.6577 49.4034 31.1761 49.4034 29.5455C49.4034 27.9347 49.1548 26.483 48.6577 25.1903C48.1705 23.8878 47.4297 22.8587 46.4354 22.103C45.451 21.3374 44.2131 20.9545 42.7216 20.9545C41.2898 20.9545 40.0866 21.3175 39.1122 22.0433C38.1378 22.7592 37.402 23.7635 36.9048 25.0561C36.4077 26.3388 36.1591 27.8352 36.1591 29.5455Z" fill="#5A3FD9"/>
</svg>
